<?xml version="1.0" encoding="UTF-8" standalone="no"?>
<svg width="300px" height="300px" viewBox="0 0 300 300" version="1.1" xmlns="http://www.w3.org/2000/svg" xmlns:xlink="http://www.w3.org/1999/xlink" xmlns:sketch="http://www.bohemiancoding.com/sketch/ns">
    <!-- Generator: Sketch 3.4.4 (17249) - http://www.bohemiancoding.com/sketch -->
    <title>images/noPartPreviewLarge</title>
    <desc>Created with Sketch.</desc>
    <defs></defs>
    <g id="Page-1" stroke="none" stroke-width="1" fill="none" fill-rule="evenodd" sketch:type="MSPage">
        <g id="images/noPartPreviewLarge" sketch:type="MSArtboardGroup">
            <rect id="Bounds" sketch:type="MSShapeGroup" x="0" y="0" width="300" height="300"></rect>
            <g id="NoPartPreview" sketch:type="MSLayerGroup">
                <g id="Group" sketch:type="MSShapeGroup">
                    <g transform="translate(42.000000, 200.000000)" id="No-preview-available" fill="#616B73">
                        <path d="M13.532,18.024 L13.532,0.888 L11.324,0.888 L11.324,13.8 L11.252,13.8 L3.116,0.888 L0.788,0.888 L0.788,18 L3.02,18 L3.02,4.896 L3.068,4.896 L11.276,18.024 L13.532,18.024 Z M26.78,13.272 L26.78,10.584 C26.78,7.488 24.692,5.592 21.668,5.592 C18.86,5.592 16.58,7.416 16.58,10.632 L16.58,13.464 C16.58,16.56 18.644,18.288 21.692,18.288 C24.476,18.288 26.78,16.488 26.78,13.272 L26.78,13.272 Z M24.524,13.368 C24.524,15.336 23.468,16.44 21.668,16.44 C19.724,16.44 18.836,15.192 18.836,13.416 L18.836,10.536 C18.836,8.568 19.892,7.464 21.692,7.464 C23.636,7.464 24.524,8.688 24.524,10.464 L24.524,13.368 Z M45.644,13.68 L45.644,9.96 C45.644,7.272 43.82,5.592 41.18,5.592 C39.86,5.592 38.564,6.216 37.676,7.536 L37.628,7.536 L37.628,5.856 L35.468,5.856 L35.468,22.8 L37.676,22.8 L37.676,16.752 L37.748,16.752 C38.348,17.664 39.62,18.288 40.964,18.288 C43.364,18.288 45.644,16.848 45.644,13.68 L45.644,13.68 Z M43.388,13.728 C43.388,15.624 42.044,16.464 40.7,16.464 C39.188,16.464 37.676,15.384 37.676,13.608 L37.676,10.536 C37.676,8.712 39.26,7.488 40.676,7.488 C42.452,7.488 43.388,8.592 43.388,10.08 L43.388,13.728 Z M55.796,7.8 L55.796,5.76 C55.508,5.736 55.076,5.664 54.716,5.664 C53.108,5.664 51.62,6.528 50.708,8.016 L50.66,8.016 L50.66,5.856 L48.5,5.856 L48.5,18 L50.708,18 L50.708,11.376 C50.708,9.6 51.596,8.352 52.844,7.896 C53.18,7.776 53.852,7.704 54.236,7.704 C54.356,7.704 55.508,7.752 55.796,7.8 L55.796,7.8 Z M67.652,15.672 L65.948,14.808 C65.3,15.696 64.244,16.416 63.116,16.416 C61.076,16.416 59.804,15.168 59.804,13.344 L59.804,12.576 L67.652,12.576 L67.652,10.416 C67.652,7.248 65.492,5.592 62.78,5.592 C59.852,5.592 57.524,7.392 57.524,10.8 L57.524,13.344 C57.524,16.704 60.02,18.288 63.02,18.288 C64.868,18.288 66.572,17.424 67.652,15.672 L67.652,15.672 Z M65.468,10.944 L59.804,10.944 L59.804,10.344 C59.804,8.592 60.98,7.464 62.756,7.464 C64.58,7.464 65.468,8.712 65.468,10.392 L65.468,10.944 Z M80.012,5.856 L77.78,5.856 L74.684,15.264 L74.636,15.264 L71.54,5.856 L69.212,5.856 L73.484,18.024 L75.74,18.024 L80.012,5.856 Z M84.38,3.408 L84.38,0.792 L82.172,0.792 L82.172,3.408 L84.38,3.408 Z M84.38,18 L84.38,5.856 L82.172,5.856 L82.172,18 L84.38,18 Z M97.412,15.672 L95.708,14.808 C95.06,15.696 94.004,16.416 92.876,16.416 C90.836,16.416 89.564,15.168 89.564,13.344 L89.564,12.576 L97.412,12.576 L97.412,10.416 C97.412,7.248 95.252,5.592 92.54,5.592 C89.612,5.592 87.284,7.392 87.284,10.8 L87.284,13.344 C87.284,16.704 89.78,18.288 92.78,18.288 C94.628,18.288 96.332,17.424 97.412,15.672 L97.412,15.672 Z M95.228,10.944 L89.564,10.944 L89.564,10.344 C89.564,8.592 90.74,7.464 92.516,7.464 C94.34,7.464 95.228,8.712 95.228,10.392 L95.228,10.944 Z M116.828,5.856 L114.62,5.856 L111.884,15.168 L111.836,15.168 L109.076,5.856 L106.916,5.856 L104.132,15.168 L104.06,15.168 L101.396,5.856 L99.068,5.856 L102.932,18.024 L105.14,18.024 L107.924,8.64 L107.996,8.64 L110.756,18.024 L112.988,18.024 L116.828,5.856 Z M134.204,18 C134.084,17.472 134.012,16.176 134.012,15.456 L134.012,9.24 C134.012,6.48 131.852,5.568 129.38,5.568 C127.076,5.568 124.772,6.456 124.772,9.024 L124.772,9.288 L126.788,9.288 L126.788,8.904 C126.788,7.728 128.012,7.272 129.308,7.272 C130.868,7.272 131.828,7.968 131.828,9.528 L131.828,10.944 L128.804,10.944 C126.716,10.944 124.1,11.952 124.1,14.784 C124.1,17.064 125.996,18.264 128.3,18.264 C129.74,18.264 130.796,17.832 131.804,16.752 L131.876,16.752 C131.876,17.04 131.948,17.712 131.972,18 L134.204,18 Z M131.828,13.728 C131.828,15.36 130.772,16.488 128.708,16.488 C127.388,16.488 126.308,15.912 126.308,14.616 C126.308,13.008 127.532,12.576 128.924,12.576 L131.828,12.576 L131.828,13.728 Z M146.924,5.856 L144.692,5.856 L141.596,15.264 L141.548,15.264 L138.452,5.856 L136.124,5.856 L140.396,18.024 L142.652,18.024 L146.924,5.856 Z M158.444,18 C158.324,17.472 158.252,16.176 158.252,15.456 L158.252,9.24 C158.252,6.48 156.092,5.568 153.62,5.568 C151.316,5.568 149.012,6.456 149.012,9.024 L149.012,9.288 L151.028,9.288 L151.028,8.904 C151.028,7.728 152.252,7.272 153.548,7.272 C155.108,7.272 156.068,7.968 156.068,9.528 L156.068,10.944 L153.044,10.944 C150.956,10.944 148.34,11.952 148.34,14.784 C148.34,17.064 150.236,18.264 152.54,18.264 C153.98,18.264 155.036,17.832 156.044,16.752 L156.116,16.752 C156.116,17.04 156.188,17.712 156.212,18 L158.444,18 Z M156.068,13.728 C156.068,15.36 155.012,16.488 152.948,16.488 C151.628,16.488 150.548,15.912 150.548,14.616 C150.548,13.008 151.772,12.576 153.164,12.576 L156.068,12.576 L156.068,13.728 Z M163.868,3.408 L163.868,0.792 L161.66,0.792 L161.66,3.408 L163.868,3.408 Z M163.868,18 L163.868,5.856 L161.66,5.856 L161.66,18 L163.868,18 Z M172.22,17.88 L172.22,16.2 C172.196,16.2 172.148,16.2 172.1,16.224 C171.644,16.296 171.212,16.344 170.756,16.344 C169.844,16.344 169.508,15.768 169.508,15.048 L169.508,0.888 L167.3,0.888 L167.3,15.096 C167.3,16.608 167.852,18.216 170.204,18.216 C170.804,18.216 171.572,18.072 172.22,17.88 L172.22,17.88 Z M183.86,18 C183.74,17.472 183.668,16.176 183.668,15.456 L183.668,9.24 C183.668,6.48 181.508,5.568 179.036,5.568 C176.732,5.568 174.428,6.456 174.428,9.024 L174.428,9.288 L176.444,9.288 L176.444,8.904 C176.444,7.728 177.668,7.272 178.964,7.272 C180.524,7.272 181.484,7.968 181.484,9.528 L181.484,10.944 L178.46,10.944 C176.372,10.944 173.756,11.952 173.756,14.784 C173.756,17.064 175.652,18.264 177.956,18.264 C179.396,18.264 180.452,17.832 181.46,16.752 L181.532,16.752 C181.532,17.04 181.604,17.712 181.628,18 L183.86,18 Z M181.484,13.728 C181.484,15.36 180.428,16.488 178.364,16.488 C177.044,16.488 175.964,15.912 175.964,14.616 C175.964,13.008 177.188,12.576 178.58,12.576 L181.484,12.576 L181.484,13.728 Z M197.252,13.68 L197.252,9.96 C197.252,7.272 195.428,5.592 192.788,5.592 C191.468,5.592 190.148,6.336 189.308,7.536 L189.284,7.536 L189.284,0.888 L187.076,0.888 L187.076,18 L189.212,18 L189.212,16.728 L189.26,16.728 C189.884,17.616 191.156,18.288 192.524,18.288 C194.924,18.288 197.252,16.848 197.252,13.68 L197.252,13.68 Z M194.996,13.728 C194.996,15.624 193.652,16.464 192.308,16.464 C190.796,16.464 189.284,15.384 189.284,13.608 L189.284,10.536 C189.284,8.712 190.868,7.488 192.284,7.488 C194.06,7.488 194.996,8.592 194.996,10.08 L194.996,13.728 Z M205.076,17.88 L205.076,16.2 C205.052,16.2 205.004,16.2 204.956,16.224 C204.5,16.296 204.068,16.344 203.612,16.344 C202.7,16.344 202.364,15.768 202.364,15.048 L202.364,0.888 L200.156,0.888 L200.156,15.096 C200.156,16.608 200.708,18.216 203.06,18.216 C203.66,18.216 204.428,18.072 205.076,17.88 L205.076,17.88 Z M216.932,15.672 L215.228,14.808 C214.58,15.696 213.524,16.416 212.396,16.416 C210.356,16.416 209.084,15.168 209.084,13.344 L209.084,12.576 L216.932,12.576 L216.932,10.416 C216.932,7.248 214.772,5.592 212.06,5.592 C209.132,5.592 206.804,7.392 206.804,10.8 L206.804,13.344 C206.804,16.704 209.3,18.288 212.3,18.288 C214.148,18.288 215.852,17.424 216.932,15.672 L216.932,15.672 Z M214.748,10.944 L209.084,10.944 L209.084,10.344 C209.084,8.592 210.26,7.464 212.036,7.464 C213.86,7.464 214.748,8.712 214.748,10.392 L214.748,10.944 Z"></path>
                    </g>
                    <g transform="translate(103.000000, 70.000000)" id="Shape">
                        <g>
                            <g>
                                <path d="M22.752,92.172 L5,74.416 L5,48.172 L47.552,48.172 L47.632,6.172 L73.24,6.172 L91,23.932 L91,92.172 L22.752,92.172 Z" fill="#FFFFFF"></path>
                                <path d="M71.996,9.172 L88,25.172 L88,89.172 L23.996,89.172 L8,73.172 L8,51.168 L50.544,51.168 L50.624,9.172 L71.996,9.172 L71.996,9.172 Z M74.484,3.172 L72,3.172 L50.628,3.172 L44.64,3.172 L44.628,9.16 L44.56,45.168 L8,45.168 L2,45.168 L2,51.168 L2,73.172 L2,75.656 L3.756,77.412 L19.752,93.412 L21.508,95.168 L23.992,95.168 L88,95.168 L94,95.168 L94,89.168 L94,25.168 L94,22.684 L92.244,20.928 L76.24,4.928 L74.484,3.172 L74.484,3.172 L74.484,3.172 Z" fill="#9AA5AF"></path>
                            </g>
                        </g>
                        <path d="M88,89.172 L23.996,89.172 L24,67.776 L66.664,67.84 L66.584,25.172 L88,25.172 L88,89.172 Z" fill="#FFFFFF"></path>
                        <path d="M88,25.172 L71.448,8.5 L50.584,8.5 L66.584,25.172 L88,25.172 Z" fill="#FFFFFF"></path>
                        <path d="M23.996,89.172 L8,73.172 L8,51.104 L24,67.776 L23.996,89.172 Z" fill="#FFFFFF"></path>
                        <g transform="translate(8.000000, 8.000000)" stroke="#9AA5AF" stroke-width="0.5">
                            <path d="M42.584,0.5 L58.584,17.172"></path>
                            <path d="M0,43.172 L16,59.776"></path>
                            <path d="M80,17.172 L58.584,17.172 L58.664,59.84"></path>
                            <path d="M58.664,59.84 L16,59.776 L15.996,81.172"></path>
                            <path d="M40.888,41.172 L58.664,59.604"></path>
                        </g>
                    </g>
                </g>
            </g>
        </g>
    </g>
</svg>